<mxfile host="app.diagrams.net" modified="2023-11-20T05:56:33.011Z" agent="Mozilla/5.0 (Windows NT 10.0; Win64; x64) AppleWebKit/537.36 (KHTML, like Gecko) Chrome/119.0.0.0 Safari/537.36" etag="Kckd1FDSrGEiQEJ22OQN" version="22.1.3" type="github">
  <diagram name="第 1 页" id="5fXoOFTsolpHIbZ1TO_L">
    <mxGraphModel dx="1461" dy="737" grid="1" gridSize="10" guides="1" tooltips="1" connect="1" arrows="1" fold="1" page="1" pageScale="1" pageWidth="827" pageHeight="1169" math="0" shadow="0">
      <root>
        <mxCell id="0" />
        <mxCell id="1" parent="0" />
        <mxCell id="Rc72pF7vDM-TfxJGRlKb-2" value="1、明细中每个物料的申请数量/单价/总价都不能为0" style="shape=note;size=20;whiteSpace=wrap;html=1;" vertex="1" parent="1">
          <mxGeometry x="40" y="290" width="100" height="100" as="geometry" />
        </mxCell>
      </root>
    </mxGraphModel>
  </diagram>
</mxfile>
